<?xml version="1.0" encoding="UTF-8" standalone="no"?>
<svg
   id="Layer_1"
   data-name="Layer 1"
   viewBox="0 0 252.01443 209.55203"
   version="1.1"
   sodipodi:docname="307comet.svg"
   inkscape:version="1.3.2 (091e20e, 2023-11-25, custom)"
   width="252.01443"
   height="209.55203"
   xmlns:inkscape="http://www.inkscape.org/namespaces/inkscape"
   xmlns:sodipodi="http://sodipodi.sourceforge.net/DTD/sodipodi-0.dtd"
   xmlns="http://www.w3.org/2000/svg"
   xmlns:svg="http://www.w3.org/2000/svg">
  <sodipodi:namedview
     id="namedview13"
     pagecolor="#505050"
     bordercolor="#eeeeee"
     borderopacity="1"
     inkscape:pageshadow="0"
     inkscape:pageopacity="0"
     inkscape:pagecheckerboard="0"
     showgrid="false"
     inkscape:zoom="0.8607754"
     inkscape:cx="38.918398"
     inkscape:cy="47.050601"
     inkscape:window-width="1920"
     inkscape:window-height="1009"
     inkscape:window-x="-8"
     inkscape:window-y="-8"
     inkscape:window-maximized="1"
     inkscape:current-layer="Layer_1"
     inkscape:showpageshadow="0"
     inkscape:deskcolor="#505050" />
  <defs
     id="defs4">
    <style
       id="style2">
      .cls-1 {
        fill: #939598;
      }
    </style>
  </defs>
  <path
     class="cls-1"
     d="m 250.91275,55.430042 c -2.18,-4.11 -5.15,-7.23 -8.49,-10.39 -3.65,-3.44 -7.63,-6.52 -11.68,-9.45 -4.87,-3.53 -8.87,-9.5 -7.77,-15.39 1.56,-8.3 1.84,-16.03 -5.57,-17.86 -2.29,-0.57 -18.33,-2.35000003 -25.86,-2.340000034944 -9.27,0.02000000494 -18.56,0.590000004944 -27.78,1.430000034944 -19.39,1.78 -49.4,6.66 -80.029998,13.06 -8.03,1.68 -53.81,13.14 -61.74,15.21 -12.3399998,2.94 -18.4299998,6.14 -21.42999975,8.32 -2.19000005,2.27 2.35999995,6.02 7.63999995,7.9 2.9299998,1.77 42.7899998,16.12 52.0199998,20.76 3.21,1.61 2.62,4.23 -0.71,8.59 -4.83,8.11 -28.95,39.129998 -35.27,48.479998 -3.44,6.03 0.22,11.07 8.95,10.84 10.37,0.16 33.09,-0.46 43.03,-0.79 3.91,0.23 4.41,1.59 5.43,4.84 0.55,8.35 -9.31,14.98 -2.03,26.96 6.97,8.54 14.11,16.93 21.219998,25.33 4.07,4.8 8.25,9.5 12.34,14.27 4.13,4.82 11.92,5.73 17.22,2.26 10.19,-6.69 20.07,-13.65 30.07,-20.51 11.76,-8.07 19.55,-13.97 32.15,-20.48 1.33,-0.69 2.9,-0.93 4.34,-1.33 5.99,-1.67 15.04,-2.91 20.7,-4.29 3.41,-0.83 5.66,-4.27 6.04,-9.01 0.4,-5.01 -0.35,-11.35 -0.07,-16.47 0.33,-5.91 3.8,-9.88 8.65,-14.19 3.6,-3.2 3.88,-8.47 3.07,-13.09 -0.52,-2.98 -1.42,-6.88 -2.27,-10.279998 -3.12,-12.52 -5.34,-13.25 11.16,-23.61 3.06,-1.92 5.3,-5.15 6.69,-8.74 1.23,-3.18 1.64,-6.94 0,-10.04 z m -29.71,-28.92 c 1.39,1.79 -0.85,2.2 0.79,4.94 1.65,2.74 9.85,8.91 13.66,12.15 3.81,3.24 -3.59,2.72 -6.83,0.92 -1.15,-0.77 -1.6,-1.88 -3.75,-3.84 -3.12,-2.43 -5.3,-4.18 -7.87,-5.58 -2.57,-1.4 -0.46,-5.71 -0.46,-5.71 l 1.47,-2.31 c 0,0 1.6,-2.36 2.99,-0.57 z m -203.839998,17.2 c -5.17,-1.85 -10.6799998,-3.26 -7.2,-4.97 3.48,-1.71 17.9,-5.14 17.9,-5.14 0,0 41.77,-11.11 64.74,-15.91 22.959998,-4.8 56.649998,-11.19 74.269998,-12.7 17.7,-1.51 46.48,-0.05 49.77,2.75 1.77,1.51 3.54,4.35 1.51,9.26 -2.26,5.49 -3.96,13.73 -6.89,13.46 -1.68,-0.15 -5.52,-1.19 -7.88,-2.67 -2.36,-1.48 2.44,-8.13 2.06,-10.78 -0.38,-2.65 -1.45,-4.87 -4.58,-5.81 -3.13,-0.94 -10.08,-0.95 -22.02,-0.05 -11.94,0.9 -34.16,3.2 -54.46,6.8 -20.3,3.61 -33.829998,6.93 -53.079998,12.98 -19.9,6.25 -33.65,12.16 -41.45,14.66 -4.63,1.48 -6.14,0.45 -12.7,-1.9 z m 43.4,14.47 c 4,-2.21 28.73,-15.88 31.73,-17.36 3,-1.48 2.6,-3.08 -6.75,-0.76 -9.36,2.33 -28.19,14.52 -33.8,14.7 -5.6,0.19 -16.95,-2.99 -14.62,-6.18 2.21,-3.01 29.9,-11.78 48.44,-17.42 50.459998,-13.6 83.539998,-16.04 106.999998,-16.04 3.59,0 6.32,0.17 6.32,3.32 0,3.15 -0.56,5.98 -2.95,6.83 -2.72,0.76 -8.66,0.49 -18.2,1.16 -42.3,4.88 -48.39,7.73 -76.43,17.1 -14.339998,6.26 -25.499998,13.32 -31.729998,16.14 -4.07,2.62 -13,0.72 -9,-1.48 z m -22.97,69.539998 c -4.86,-0.31 -4.23,-3.64 -3.56,-5.72 3.02,-6.76 31.05,-41.809998 36.67,-48.379998 4.29,-5.78 6.31,-8.31 12.13,-12.4 6.23,-4.17 8.79,-5.34 18.619998,-9.73 9.83,-4.39 27.27,-9.01 27.27,-9.01 0,0 9.06,-2.77 22.99,-5.2 13.93,-2.43 28.62,-4.63 39.37,-4.63 10.75,0 21.42,5.04 21.42,5.04 0,0 7.25,3.82 8.37,5.95 1.12,2.13 -9.78,2.64 -17.53,4.14 -7.75,1.5 -32.94,10.14 -47.13,16.44 -14.19,6.31 -27.77,13.66 -39.39,20.34 -11.62,6.69 -23.389998,12.22 -47.379998,27.429998 -9.71,7 -22.36,16.34 -31.86,15.73 z m 46.75,34.15 c -1.01,-0.7 -2.34,-2.52 -2.29,-5.54 0,0 0,0 0,0 -0.63,-1.97 3.36,-10.97 4.34,-16.12 0.6,-3.16 -1.38,-5.56 -1.49,-10.38 0.05,-5.95 38.129998,-26.48 47.079998,-28.65 6.72,-2.249998 5.72,10.49 7.24,17.13 0.96,4.2 3.02,8.44 5.35,11.83 1.27,1.85 1.47,2.09 2.98,5.24 0.4,3.2 -1.75,4.73 -4.02,4.11 -2.74,-0.87 -7.32,-9.1 -9.72,-9.65 -3.6,-0.83 -4.8,-0.12 -7.47,1.82 -11.22,8.14 -15.55,10.36 -32.239998,24.43 -0.37,0.36 -7.44,7.18 -9.77,5.77 z m 143.379998,-45.51 c -11.24,1.59 -4.43,9.4 -6.66,10.61 -1.91,0.69 -3.2,0.1 -6.46,0.33 -1.38,0.22 -2.15,0 -3.5,1.5 -0.27,0.3 -1.22,0.58 -1.77,0.58 -1.31,0.02 -3.94,-0.46 -4.23,0.73 0.37,5.26 13.26,3.14 13.82,4.27 0.56,1.13 0.96,3.88 -1.68,7.09 -0.34,1.52 1.02,3.87 1.82,5.26 2.15,3.73 1.33,7.33 -1.2,8.94 -2.65,1.1 -5.36,1.04 -8.05,1.33 -6.45,0.69 -11.76,1.57 -16.95,2.88 -4.29,1.08 -19.12,10.24 -25.04,13.65 -7.47,4.3 -14.44,9.52 -21.56,14.45 -19.64,13.84 -21.95,14.1 -25.75,11 -4.66,-5.42 -6.5,-7.77 -11.54,-12.99 -5.05,-5.22 -8.85,-11.08 -13.119998,-16.74 -2.25,-2.98 -0.45,-6.2 2.52,-8.51 9.539998,-7.4 22.099998,-18.22 29.359998,-21.12 2.34,-0.63 2.22,-0.35 4.37,0.56 7.13,3.41 18.44,10.98 22.74,15.93 9.33,10.43 12.15,9.61 14.47,8.87 3.02,-1.69 16.07,-7.84 15.53,-9.62 -0.54,-1.78 -3.43,-1.55 -4.99,-1.61 -8.07,-0.33 -15.61,-3.28 -20.94,-8.96 -3.83,-4.08 -7.67,-23.05 -11.31,-29.57 -3.64,-6.52 -5.63,-13.46 -3.71,-17.109998 1.92,-3.65 14.42,-10.73 27.63,-17.2 13.21,-6.48 22.17,-11.71 31.39,-12.63 9.22,-0.92 15.99,-0.61 18.03,2.79 1.15,1.92 3,7.7 1.71,9.1 -1.71,0.2 -4.67,-1.11 -4.67,-1.11 0,0 -4.13,-2.28 -7.29,-2.64 -3.36,-0.38 -12.58,0.6 -15.93,1.81 -3.35,1.21 -8.96,4.5 -8.96,6.35 0,1.85 7.43,-2.75 7.99,-1.17 0.55,1.58 4.48,3.77 6.55,4.51 2.06,0.73 3.62,0.97 5.21,0.97 1.59,0 2.52,-0.66 4.28,-1.86 1.76,-1.2 2.37,-2.15 3.07,-2.88 0.7,-0.73 1.98,-1.42 2.47,-1.57 0.49,-0.15 0.8,-0.2 1.47,-0.02 1.8,0.5 5.3,1.88 6.44,3.14 1.14,1.26 1.49,2.67 1.93,4.22 1.34,4.71 4.37,12.699998 5.39,20.579998 0.47,3.63 0.42,4.86 -2.89,5.85 z m 16.55,-48.239998 c -2.78,3.05 -12.65,11.12 -14.48,10.64 -2,-0.52 -2.48,-2.38 -2.88,-3.36 -1.04,-2.55 0.58,-6.55 -0.89,-9.67 -1.47,-3.12 -14.01,-4.34 -23.27,-3.81 -9.26,0.52 -16.66,3.29 -27.43,8.01 -10.77,4.72 -24.1,13.36 -26.29,13.71 -1.63,0.26 -5.23,0.4 -6.61,0.52 -4,0.35 -5.04,1.94 -9.12,5.29 -4.08,3.35 -7.02,7.3 -11.59,10 -4.57,2.699998 -42.809998,26.189998 -46.429998,27.109998 -3.62,0.92 -18.84,2.72 -16.01,-1.04 2.96,-3.93 38.79,-24.07 38.79,-24.07 L 130.93275,81.720042 c 0,0 38.96,-20.2 56.21,-25.26 17.53,-5.93 37.74,-8.51 45.65,-7.02 7.91,1.48 13.28,4.56 14.09,8.17 0.81,3.61 0.38,7.45 -2.39,10.5 z"
     id="path8"
     style="fill:#3f4f44;fill-opacity:1"
     inkscape:export-filename="C:\Users\zacha\Desktop\path8.png"
     inkscape:export-xdpi="300"
     inkscape:export-ydpi="300" />
</svg>
