<?xml version="1.0" encoding="UTF-8" standalone="no"?>
<svg
   id="Layer_1"
   data-name="Layer 1"
   viewBox="0 0 250 250"
   version="1.1"
   sodipodi:docname="favicon.svg"
   inkscape:version="1.3.2 (091e20e, 2023-11-25, custom)"
   width="250"
   height="250"
   xmlns:inkscape="http://www.inkscape.org/namespaces/inkscape"
   xmlns:sodipodi="http://sodipodi.sourceforge.net/DTD/sodipodi-0.dtd"
   xmlns="http://www.w3.org/2000/svg"
   xmlns:svg="http://www.w3.org/2000/svg">
  <sodipodi:namedview
     id="namedview13"
     pagecolor="#505050"
     bordercolor="#eeeeee"
     borderopacity="1"
     inkscape:pageshadow="0"
     inkscape:pageopacity="0"
     inkscape:pagecheckerboard="0"
     showgrid="false"
     inkscape:zoom="0.8607754"
     inkscape:cx="38.918398"
     inkscape:cy="45.888858"
     inkscape:window-width="1920"
     inkscape:window-height="1009"
     inkscape:window-x="-8"
     inkscape:window-y="-8"
     inkscape:window-maximized="1"
     inkscape:current-layer="Layer_1"
     inkscape:showpageshadow="0"
     inkscape:deskcolor="#505050" />
  <defs
     id="defs4">
    <style
       id="style2">
      .cls-1 {
        fill: #939598;
      }
    </style>
  </defs>
  <path
     class="cls-1"
     d="m 248.90735,76.048424 c -2.16258,-4.07715 -5.10884,-7.172214 -8.42215,-10.306958 -3.62082,-3.412507 -7.56902,-6.467889 -11.58663,-9.374473 -4.83109,-3.501785 -8.79912,-9.424069 -7.7079,-15.266995 1.54752,-8.233662 1.82528,-15.901879 -5.52549,-17.717254 -2.27169,-0.565443 -18.18349,-2.331218 -25.65332,-2.321298 -9.19591,0.01983 -18.41167,0.585286 -27.55797,1.41857 -19.23502,1.765774 -49.00517,6.606773 -79.390359,12.95562 C 75.097711,37.102209 29.68361,48.470615 21.81699,50.52407 9.5756175,53.440574 3.5342905,56.614998 0.55827055,58.777573 -1.6142285,61.02943 2.8994075,64.749457 8.1372065,66.614433 11.043789,68.370286 50.585205,82.605594 59.741435,87.208508 c 3.184343,1.597134 2.599058,4.196188 -0.704326,8.521348 -4.791396,8.045184 -28.718613,38.817254 -34.988103,48.092524 -3.412504,5.98181 0.218244,10.98152 8.878469,10.75336 10.287113,0.15873 32.825527,-0.45632 42.686081,-0.78367 3.878748,0.22815 4.374753,1.57729 5.3866,4.80131 0.545604,8.28325 -9.23559,14.86027 -2.013775,26.74451 6.914287,8.47176 13.997223,16.79468 21.050409,25.12756 4.03746,4.76163 8.18405,9.42407 12.24136,14.15595 4.09699,4.78147 11.82474,5.68421 17.08236,2.24193 10.10857,-6.63652 19.9096,-13.5409 29.82968,-20.34608 11.666,-8.0055 19.39374,-13.85834 31.89304,-20.31631 1.31937,-0.68449 2.87682,-0.92256 4.30531,-1.31936 5.94213,-1.65665 14.91978,-2.88674 20.53456,-4.25571 3.38274,-0.82338 5.61477,-4.23588 5.99173,-8.938 0.3968,-4.96996 -0.3472,-11.25928 -0.0697,-16.33837 0.32738,-5.86275 3.76965,-9.80101 8.58088,-14.07658 3.57122,-3.17442 3.84899,-8.4023 3.04546,-12.98538 -0.51585,-2.95617 -1.40865,-6.82501 -2.25185,-10.19782 -3.09508,-12.41995 -5.29732,-13.14413 11.07079,-23.421324 3.03556,-1.90464 5.25766,-5.108832 6.63655,-8.670132 1.22015,-3.154588 1.62686,-6.884536 0,-9.95976 z M 219.4348,47.359567 c 1.3789,1.775693 -0.8432,2.182417 0.78369,4.900517 1.63681,2.7181 9.77128,8.838787 13.55082,12.052891 3.77956,3.214105 -3.56131,2.698261 -6.77541,0.912648 -1.14081,-0.763847 -1.58721,-1.864975 -3.72002,-3.809309 -3.09507,-2.410578 -5.25764,-4.146593 -7.8071,-5.535403 -2.54946,-1.38881 -0.45634,-5.664363 -0.45634,-5.664363 l 1.45826,-2.291538 c 0,0 1.58721,-2.341137 2.9661,-0.565443 z M 17.223996,64.422096 c -5.128679,-1.835214 -10.5946405,-3.233945 -7.142455,-4.930278 3.452186,-1.696331 17.756935,-5.098917 17.756935,-5.098917 0,0 41.436152,-11.021205 64.222558,-15.782841 22.776496,-4.761637 56.197226,-11.100564 73.676406,-12.598496 17.55852,-1.497932 46.10849,-0.0496 49.3722,2.728022 1.75587,1.497931 3.51172,4.315231 1.49795,9.185989 -2.24195,5.446121 -3.92837,13.620263 -6.83494,13.352422 -1.66657,-0.148801 -5.47587,-1.180489 -7.81702,-2.648661 -2.34114,-1.468171 2.42049,-8.065021 2.04353,-10.693841 -0.37695,-2.62882 -1.4384,-4.831077 -4.54339,-5.763564 -3.10498,-0.932486 -9.99943,-0.942406 -21.84401,-0.0496 -11.84456,0.892806 -33.88698,3.174424 -54.02473,6.74565 -20.13774,3.581147 -33.559606,6.874613 -52.655751,12.876258 -19.74095,6.200048 -33.38105,12.062813 -41.118709,14.542831 -4.592993,1.468172 -6.090925,0.446403 -12.598494,-1.884814 z m 43.053122,14.354349 c 3.968031,-2.192336 28.500376,-15.75308 31.476396,-17.221251 2.97602,-1.468171 2.57922,-3.055384 -6.696046,-0.753926 C 75.772277,63.112647 57.092774,75.205218 51.527613,75.383781 45.972371,75.572262 34.71309,72.417677 37.024467,69.253173 39.216803,66.26723 66.685487,57.567325 85.077302,51.972401 135.134,38.481099 167.94962,36.0606 191.22211,36.0606 c 3.56131,0 6.26948,0.168641 6.26948,3.293467 0,3.124823 -0.55552,5.932204 -2.92641,6.77541 -2.69826,0.753925 -8.59078,0.486083 -18.05455,1.150728 -41.96192,4.840999 -48.00323,7.668219 -75.81911,16.96333 -14.225407,6.209966 -25.296206,13.21354 -31.476413,16.011001 -4.037471,2.59906 -12.896098,0.714246 -8.928069,-1.468171 z M 37.490709,147.76066 c -4.821155,-0.30753 -4.196192,-3.61092 -3.531546,-5.67428 2.995864,-6.70598 30.80183,-41.47585 36.376913,-47.993334 4.25571,-5.733804 6.259566,-8.243582 12.033051,-12.300898 6.180207,-4.136671 8.719747,-5.297321 18.471193,-9.652234 9.75142,-4.354912 27.05203,-8.937987 27.05203,-8.937987 0,0 8.98759,-2.747862 22.80625,-5.15844 13.81867,-2.410577 28.39125,-4.592993 39.05534,-4.592993 10.66408,0 21.24879,4.999716 21.24879,4.999716 0,0 7.19207,3.789469 8.30311,5.902445 1.11105,2.112977 -9.70182,2.618899 -17.3899,4.106911 -7.68805,1.488012 -32.67672,10.058957 -46.7533,16.308603 -14.0766,6.259577 -27.54805,13.550817 -39.07517,20.177421 -11.52713,6.63655 -23.203066,12.12235 -47.001323,27.21078 -9.632394,6.94405 -22.18129,16.20941 -31.605358,15.60429 z m 46.376348,33.87706 c -1.001927,-0.69443 -2.321297,-2.49987 -2.271697,-5.49574 0,0 0,0 0,0 -0.624964,-1.95424 3.333142,-10.88232 4.305308,-15.99115 0.595212,-3.13475 -1.368967,-5.51556 -1.478089,-10.29704 0.04956,-5.90245 37.825241,-26.26836 46.703721,-28.42101 6.66628,-2.23203 5.67428,10.40615 7.18213,16.99308 0.95233,4.16643 2.99586,8.37254 5.30724,11.73544 1.25985,1.83521 1.45825,2.0733 2.95619,5.19812 0.3968,3.17444 -1.73601,4.69221 -3.98788,4.07716 -2.7181,-0.86306 -7.26149,-9.02728 -9.64231,-9.57288 -3.57122,-0.82335 -4.76165,-0.119 -7.41029,1.80547 -11.13032,8.07494 -15.42573,10.27719 -31.982336,24.23473 -0.36704,0.35714 -7.380531,7.12263 -9.691909,5.72388 z M 226.10109,136.49145 c -11.15015,1.57728 -4.39459,9.32486 -6.60677,10.5252 -1.89473,0.68448 -3.17442,0.0992 -6.40837,0.32735 -1.36896,0.21825 -2.13282,0 -3.47203,1.48801 -0.26782,0.2976 -1.21023,0.57538 -1.75584,0.57538 -1.29954,0.0199 -3.90852,-0.45632 -4.19618,0.72416 0.36702,5.21795 13.15401,3.1149 13.70952,4.23587 0.55552,1.12097 0.95234,3.849 -1.66657,7.03334 -0.33727,1.50785 1.01186,3.83906 1.80546,5.21795 2.13281,3.70019 1.31937,7.27143 -1.19041,8.86855 -2.62881,1.0912 -5.31717,1.03169 -7.98567,1.31938 -6.39844,0.68449 -11.666,1.55744 -16.81452,2.85696 -4.25571,1.07138 -18.96718,10.15817 -24.83987,13.54092 -7.41029,4.26563 -14.32458,9.44392 -21.38768,14.33451 -19.48302,13.72938 -21.77457,13.9873 -25.54419,10.91208 -4.62276,-5.37668 -6.44805,-7.70789 -11.44776,-12.88617 -5.00965,-5.17829 -8.779266,-10.99146 -13.015156,-16.60621 -2.23201,-2.95619 -0.4464,-6.15045 2.49988,-8.44199 9.463746,-7.34087 21.923356,-18.07438 29.125326,-20.9512 2.32131,-0.62496 2.20225,-0.3472 4.33507,0.55553 7.07303,3.38274 18.29263,10.89223 22.55824,15.80268 9.25545,10.34663 12.05291,9.53319 14.35436,8.7991 2.99586,-1.67648 15.94157,-7.77735 15.40588,-9.5431 -0.53567,-1.76579 -3.40258,-1.53761 -4.95013,-1.59715 -8.00549,-0.32735 -15.48523,-3.25376 -20.77262,-8.88838 -3.79939,-4.04739 -7.6087,-22.86576 -11.2196,-29.33366 -3.61091,-6.46789 -5.58502,-13.35243 -3.68035,-16.97324 1.90465,-3.62083 14.30475,-10.64425 27.40916,-17.06255 13.10443,-6.428204 21.99281,-11.616404 31.13912,-12.52905 9.14631,-0.912645 15.8622,-0.605122 17.8859,2.767696 1.1408,1.90466 2.97601,7.63846 1.69632,9.027274 -1.69632,0.1984 -4.63267,-1.101134 -4.63267,-1.101134 0,0 -4.09699,-2.26178 -7.23173,-2.61889 -3.33315,-0.37697 -12.47946,0.5952 -15.80268,1.79552 -3.32323,1.20034 -8.88838,4.464054 -8.88838,6.299264 0,1.83521 7.3706,-2.72803 7.92613,-1.16066 0.54561,1.56738 4.44419,3.73988 6.49765,4.47396 2.04353,0.72416 3.59106,0.96223 5.16837,0.96223 1.57728,0 2.49984,-0.65471 4.24579,-1.84511 1.74593,-1.19041 2.35104,-2.13282 3.04544,-2.857 0.6944,-0.72415 1.96419,-1.40863 2.45028,-1.55743 0.48608,-0.1488 0.7936,-0.1984 1.45824,-0.0198 1.78563,0.496 5.25764,1.86496 6.38853,3.1149 1.13089,1.24993 1.4781,2.64865 1.91457,4.18627 1.32929,4.67236 4.33508,12.59849 5.34693,20.41552 0.46624,3.60099 0.41664,4.82114 -2.8669,5.80322 z m 16.41772,-47.854452 c -2.75776,3.025618 -12.54889,11.031128 -14.36427,10.554958 -1.98401,-0.51584 -2.46017,-2.36098 -2.85697,-3.33315 -1.03169,-2.52961 0.57536,-6.497642 -0.88289,-9.592709 -1.45825,-3.095058 -13.89803,-4.305307 -23.08401,-3.779544 -9.18599,0.515845 -16.52685,3.263711 -27.21078,7.945983 -10.68391,4.68226 -23.90738,13.253224 -26.07986,13.600424 -1.61697,0.25791 -5.18821,0.3968 -6.55717,0.51583 -3.96803,0.3472 -4.99972,1.9245 -9.04711,5.24774 -4.04739,3.32322 -6.9639,7.24164 -11.49736,9.92007 -4.53349,2.67843 -42.467853,25.98069 -46.058921,26.89331 -3.591068,0.91267 -18.68942,2.69828 -15.882041,-1.03169 2.936343,-3.89858 38.479996,-23.8776 38.479996,-23.8776 l 32.408866,-19.57233 c 0,0 38.6486,-20.038539 55.76075,-25.058098 17.38988,-5.882605 37.43835,-8.441984 45.28513,-6.963894 7.84679,1.468172 13.17386,4.523556 13.97739,8.104702 0.80352,3.581148 0.37695,7.390457 -2.3709,10.416075 z"
     id="path8"
     style="fill:#b58500;fill-opacity:1;stroke-width:0.992008"
     inkscape:export-filename="C:\Users\zacha\Desktop\path8.png"
     inkscape:export-xdpi="300"
     inkscape:export-ydpi="300" />
</svg>
